<svg xmlns="http://www.w3.org/2000/svg" xmlns:xlink="http://www.w3.org/1999/xlink" stroke="#fff" fill="#fff" version="1.1" x="0px" y="0px" viewBox="0 0 100 125" enable-background="new 0 0 100 100" xml:space="preserve"><path fill="none" d="M50.482,28.475c-0.03,0.03-0.071,0.048-0.106,0.072C50.411,28.522,50.452,28.505,50.482,28.475z"/><path fill="none" d="M50.628,28.259c-0.021,0.052-0.06,0.093-0.093,0.138C50.568,28.352,50.606,28.311,50.628,28.259z"/><path fill="none" d="M50.553,27.618c0.025,0.037,0.058,0.069,0.075,0.111C50.61,27.688,50.578,27.655,50.553,27.618z"/><path fill="none" d="M50.266,28.621c-0.082,0.034-0.171,0.053-0.265,0.053C50.095,28.674,50.184,28.655,50.266,28.621z"/><path fill="none" d="M50.001,28.674c-0.375,0-0.68-0.304-0.68-0.68s0.305-0.68,0.68-0.68c-0.376,0-0.681,0.304-0.681,0.68  S49.625,28.674,50.001,28.674z"/><path fill="none" d="M50.001,27.314c0.094,0,0.183,0.019,0.265,0.053C50.184,27.333,50.095,27.314,50.001,27.314z"/><path fill="none" d="M50.376,27.442c0.036,0.024,0.076,0.041,0.106,0.071C50.452,27.483,50.412,27.466,50.376,27.442z"/><path fill="none" d="M54.305,70.684c0.375,0,0.678,0.305,0.68,0.68C54.984,70.988,54.68,70.684,54.305,70.684z"/><path d="M86.63,69.109c0.108-0.227,0.177-0.478,0.177-0.746V28.107c0-0.953-0.772-1.725-1.727-1.725H14.92  c-0.953,0-1.724,0.772-1.724,1.725v40.256c0,0.269,0.066,0.52,0.176,0.746H5v2.783c0,0.953,0.773,1.725,1.726,1.725h86.549  c0.953,0,1.726-0.771,1.726-1.725v-2.783H86.63z M50.001,27.314c0.094,0,0.183,0.019,0.265,0.053  c0.042,0.018,0.074,0.049,0.11,0.075c0.036,0.024,0.076,0.041,0.106,0.071c0.03,0.03,0.047,0.07,0.071,0.105  c0.025,0.037,0.058,0.069,0.075,0.111c0.034,0.081,0.054,0.171,0.054,0.265s-0.02,0.183-0.054,0.265  c-0.021,0.052-0.06,0.093-0.093,0.138c-0.02,0.025-0.031,0.056-0.053,0.078c-0.03,0.03-0.071,0.048-0.106,0.072  c-0.037,0.025-0.069,0.057-0.11,0.074c-0.082,0.034-0.171,0.053-0.265,0.053c-0.376,0-0.681-0.304-0.681-0.68  S49.625,27.314,50.001,27.314z M16.143,29.708h67.714v36.571H16.143V29.708z M54.305,72.046h-8.608c-0.375,0-0.68-0.305-0.68-0.683  c0-0.375,0.305-0.68,0.68-0.68h8.608c0.375,0,0.68,0.305,0.68,0.68C54.984,71.741,54.68,72.046,54.305,72.046z"/><polygon points="25.039,48.313 25.039,49.536 25.039,49.537 44.878,49.537 44.878,49.536 44.878,48.313 44.878,48.312   25.039,48.312 "/><rect x="36.633" y="58.613" width="3.488" height="1.225"/><rect x="46.552" y="48.313" width="3.488" height="1.224"/><rect x="39.377" y="46.296" width="3.488" height="1.224"/><rect x="20.692" y="31.829" width="3.489" height="1.224"/><rect x="20.692" y="42.131" width="3.489" height="1.224"/><rect x="20.692" y="46.296" width="3.489" height="1.224"/><rect x="20.692" y="48.313" width="3.489" height="1.224"/><rect x="20.692" y="44.191" width="5.832" height="1.224"/><rect x="25.039" y="46.296" width="12.665" height="1.224"/><rect x="20.692" y="50.373" width="3.489" height="1.223"/><rect x="20.692" y="54.494" width="3.489" height="1.223"/><rect x="53.637" y="50.373" width="3.488" height="1.223"/><rect x="25.039" y="50.373" width="27.761" height="1.223"/><rect x="20.692" y="52.434" width="27.792" height="1.223"/><rect x="25.039" y="54.494" width="23.444" height="1.223"/><rect x="20.692" y="56.555" width="17.012" height="1.223"/><rect x="20.692" y="58.613" width="14.267" height="1.225"/><rect x="20.692" y="60.674" width="7.134" height="1.225"/><rect x="20.692" y="62.736" width="5.832" height="1.223"/><rect x="20.692" y="33.89" width="8.694" height="1.224"/><rect x="20.692" y="35.95" width="11.594" height="1.224"/><rect x="20.692" y="38.01" width="8.694" height="1.224"/><rect x="20.692" y="40.071" width="8.694" height="1.224"/><rect x="18.798" y="31.829" width="1.058" height="1.224"/><rect x="18.798" y="33.89" width="1.058" height="1.224"/><rect x="18.798" y="35.95" width="1.058" height="1.224"/><rect x="18.798" y="38.01" width="1.058" height="1.224"/><rect x="18.798" y="40.071" width="1.058" height="1.224"/><rect x="18.798" y="42.131" width="1.058" height="1.224"/><rect x="18.798" y="44.191" width="1.058" height="1.224"/><rect x="18.798" y="46.252" width="1.058" height="1.224"/><rect x="18.798" y="48.313" width="1.058" height="1.224"/><rect x="18.798" y="50.373" width="1.058" height="1.223"/><rect x="18.798" y="52.434" width="1.058" height="1.223"/><rect x="18.798" y="54.494" width="1.058" height="1.223"/><rect x="18.798" y="56.555" width="1.058" height="1.223"/><rect x="18.798" y="58.613" width="1.058" height="1.225"/><rect x="18.798" y="60.674" width="1.058" height="1.225"/><rect x="18.798" y="62.736" width="1.058" height="1.223"/></svg>