<svg xmlns="http://www.w3.org/2000/svg" xmlns:xlink="http://www.w3.org/1999/xlink" stroke="#fff" fill="#fff"  version="1.1" x="0px" y="0px" viewBox="0 0 300 375" style="enable-background:new 0 0 300 300;" xml:space="preserve"><g><path d="M150,75.1c74.3,0,121.7-18.1,121.7-30.5S224.3,14,150,14C75.7,14,28.3,32.1,28.3,44.5S75.7,75.1,150,75.1z"/><path d="M271.7,64.7c-23,15.6-72.6,23.7-121.7,23.7c-49.1,0-98.7-8.1-121.7-23.7l0,50.6c0,12.5,47.4,30.5,121.7,30.5   c74.3,0,121.7-18.1,121.7-30.5"/><path d="M28.3,206.2l0,50.6c0,12.5,47.4,30.5,121.7,30.5c74.3,0,121.7-18.1,121.7-30.5l0-50.6c-23,15.6-72.6,23.7-121.7,23.7   C100.9,229.9,51.3,221.8,28.3,206.2z"/><path d="M28.3,135.4l0,50.6c0,12.5,47.4,30.5,121.7,30.5c74.3,0,121.7-18.1,121.7-30.5l0-50.6c-23,15.6-72.6,23.7-121.7,23.7   C100.9,159.2,51.3,151.1,28.3,135.4z"/></g><path d="M271.7,256.8"/></svg>
