<svg xmlns="http://www.w3.org/2000/svg" xmlns:xlink="http://www.w3.org/1999/xlink" stroke="#fff" fill="#fff" version="1.1" x="0px" y="0px" viewBox="0 0 58 72.5" style="enable-background:new 0 0 58 58;" xml:space="preserve"><g><rect x="32" y="8" width="6" height="2"/><rect x="48" y="20" width="2" height="14"/><path d="M55.885,6.148c-0.387-0.934-0.291-1.941,0.235-2.756L54.608,1.88c-0.814,0.526-1.822,0.622-2.756,0.235   C50.918,1.728,50.273,0.947,50.069,0h-2.139c-0.204,0.947-0.849,1.728-1.783,2.115c-0.933,0.386-1.941,0.29-2.756-0.235   L41.88,3.392c0.526,0.814,0.622,1.822,0.235,2.756C41.728,7.082,40.947,7.727,40,7.931v2.139c0.947,0.204,1.728,0.849,2.115,1.783   c0.387,0.934,0.291,1.941-0.235,2.756l1.512,1.512c0.815-0.525,1.823-0.621,2.756-0.235c0.934,0.387,1.579,1.167,1.783,2.115h2.139   c0.204-0.947,0.849-1.728,1.783-2.115c0.932-0.387,1.941-0.291,2.756,0.235l1.512-1.512c-0.526-0.814-0.622-1.822-0.235-2.756   c0.387-0.934,1.167-1.579,2.115-1.783V7.931C57.053,7.727,56.272,7.082,55.885,6.148z M49,13c-2.209,0-4-1.791-4-4   c0-2.209,1.791-4,4-4s4,1.791,4,4C53,11.209,51.209,13,49,13z"/><path d="M0,41v14c0,0.552,0.449,1,1,1h17V40H1C0.449,40,0,40.448,0,41z M10,50h2v2h-2V50z M6,50h2v2H6V50z M2,50h2v2H2V50z"/><path d="M20,58h34V42H20V58z M41,52c0-0.552,0.448-1,1-1h8c0.552,0,1,0.448,1,1v2c0,0.552-0.448,1-1,1h-8c-0.552,0-1-0.448-1-1V52z   "/><path d="M30,30v-7c0-0.551-0.449-1-1-1H1c-0.551,0-1,0.449-1,1v14c0,0.552,0.449,1,1,1h17v-6c0-1.103,0.897-2,2-2H30z M4,34H2v-2h2   V34z M8,34H6v-2h2V34z M12,34h-2v-2h2V34z"/><path d="M1,20h28c0.551,0,1-0.449,1-1V5c0-0.551-0.449-1-1-1H1C0.449,4,0,4.449,0,5v14C0,19.551,0.449,20,1,20z M10,14h2v2h-2V14z    M6,14h2v2H6V14z M2,14h2v2H2V14z"/><path d="M32.829,34.895L31.382,32H20v8h34v-4.001L34.618,36C33.855,36,33.17,35.576,32.829,34.895z"/><rect x="35" y="26" width="2" height="2"/><rect x="39" y="26" width="2" height="2"/><rect x="43" y="26" width="2" height="2"/></g></svg>