<svg xmlns="http://www.w3.org/2000/svg" stroke="#fff" fill="#fff" viewBox="0 0 64 80" x="0px" y="0px"><title>1</title><g data-name="ux design"><path d="M4,20V52a2.0026,2.0026,0,0,0,2,2H58a2.0026,2.0026,0,0,0,2-2V20ZM26,41a.9994.9994,0,0,1-1,1H12a.9994.9994,0,0,1-1-1V31a.9994.9994,0,0,1,1-1H25a.9994.9994,0,0,1,1,1Zm12-6a1,1,0,0,1,0,2H35v8h3a1,1,0,0,1,0,2H34a.9994.9994,0,0,1-1-1V37H29a1,1,0,0,1,0-2h4V26a.9994.9994,0,0,1,1-1h4a1,1,0,0,1,0,2H35v8ZM53,49a.9994.9994,0,0,1-1,1H42a.9994.9994,0,0,1-1-1V43a.9994.9994,0,0,1,1-1H52a.9994.9994,0,0,1,1,1Zm0-10a.9994.9994,0,0,1-1,1H42a.9994.9994,0,0,1-1-1V33a.9994.9994,0,0,1,1-1H52a.9994.9994,0,0,1,1,1Zm0-10a.9994.9994,0,0,1-1,1H42a.9994.9994,0,0,1-1-1V23a.9994.9994,0,0,1,1-1H52a.9994.9994,0,0,1,1,1ZM43,44h8v4H43ZM60,18V12a2.0026,2.0026,0,0,0-2-2H6a2.0026,2.0026,0,0,0-2,2v6Zm-5-5a1,1,0,1,1-1,1A1,1,0,0,1,55,13ZM9,13H20a1,1,0,0,1,0,2H9a1,1,0,0,1,0-2ZM43,34h8v4H43ZM13,32H24v8H13Zm30-8h8v4H43Z"/></g></svg>